<?xml version="1.0" encoding="UTF-8"?><svg id="Layer_2" xmlns="http://www.w3.org/2000/svg" viewBox="0 0 218.18 52.13"><defs><style>.cls-1{fill:none;}.cls-2{fill:#0000a4;}</style></defs><g id="Layer_1-2"><path class="cls-2" d="M190.66,51.51h-10c-.02-.38-.05-.74-.05-1.11,0-4.52,0-9.03,0-13.55,0-.53-.02-1.07-.14-1.58-.33-1.48-1.64-2.38-3.13-2.17-1.58,.23-2.77,1.09-3.62,2.4-.2,.31-.22,.77-.22,1.16-.01,4.58,0,9.16,0,13.74,0,.34,0,.68,0,.99-.77,.21-7.96,.29-10.16,.11-.01-.34-.03-.7-.03-1.06,0-4.52,0-9.03,0-13.55,0-.52-.04-1.06-.17-1.57-.45-1.71-1.98-2.58-3.67-2.11-1.32,.37-2.32,1.2-3.06,2.32-.2,.3-.22,.76-.22,1.15-.01,4.58,0,9.16,0,13.74v1.07h-9.94c-.19-.69-.24-25.27-.05-26.39,.69-.18,8.74-.22,9.96-.04v3.11c.06,.03,.13,.07,.19,.1,.21-.19,.43-.38,.64-.58,2.25-2.14,4.91-3.23,8.03-3.2,3.02,.03,5.42,1.23,7.12,3.76,.19,.28,.39,.56,.64,.93,.27-.26,.5-.49,.73-.73,1.76-1.79,3.8-3.11,6.28-3.68,1.48-.34,2.96-.4,4.45-.08,2.37,.51,4.11,1.86,5.24,4,.86,1.63,1.27,3.39,1.28,5.22,.04,5.7,.02,11.4,.02,17.1,0,.15-.03,.3-.05,.49Z"/><path class="cls-2" d="M0,51.56V17.35c.66-.2,8.62-.26,10.07-.08v8.28c.45-.13,.77-.21,1.09-.31,3.28-.95,6.58-1.13,9.84,0,5.13,1.77,8.03,5.47,8.92,10.77,.47,2.81,.12,5.53-1.09,8.12-1.93,4.13-5.21,6.49-9.67,7.22-.89,.15-1.8,.19-2.7,.2-5.14,.02-10.28,0-15.42,0-.31,0-.61,0-1.04,0Zm10.14-8.75c.99,.11,1.92,.23,2.84,.3,.56,.04,1.13,.06,1.68,0,.71-.09,1.42-.22,2.09-.45,2.07-.73,3.26-2.41,3.28-4.52,.02-2.15-1.16-3.93-3.19-4.7-2.23-.84-4.45-.48-6.7,.11v9.28Z"/><path class="cls-2" d="M47.34,52.03c-2.42,0-4.79-.3-7.05-1.2-5.07-2.02-7.93-5.77-8.48-11.19-.44-4.29,.79-8.07,3.9-11.14,1.47-1.45,3.23-2.44,5.19-3.05,4.06-1.27,8.16-1.33,12.24-.13,5.62,1.65,9.02,5.92,9.56,11.83,.52,5.59-2.27,10.67-7.22,13.15-1.89,.95-3.91,1.44-6,1.63-.71,.07-1.43,.07-2.15,.11Zm-.13-8.61c2.58,.01,4.57-1.34,5.19-3.58,.81-2.92-.57-6.32-4.53-6.71-4.25-.41-6.83,2.91-5.79,6.74,.6,2.19,2.58,3.54,5.12,3.55Z"/><path class="cls-2" d="M128.23,52.13c-2.18-.12-4.3-.39-6.35-1.09-5.77-1.95-9.27-6.92-9.14-13.02,.14-6.82,4.42-11.83,11.27-13.13,3.54-.67,7.07-.58,10.52,.54,7.23,2.33,9.69,8.84,9.17,14.26-.48,5.1-3.73,10.32-10.85,11.85-1.51,.32-3.08,.4-4.62,.6Zm.03-8.72c3.55,0,5.8-2.62,5.28-6.13-.33-2.25-2.09-3.86-4.63-4.16-2.36-.28-5.09,.78-5.87,3.66-.97,3.58,1.44,6.64,5.22,6.63Z"/><path class="cls-2" d="M111.08,25.89v8.64c-.27-.08-.5-.13-.71-.22-1.5-.64-3.06-1.04-4.69-1.19-1.45-.13-2.87,0-4.19,.65-1.89,.91-2.89,2.44-2.9,4.53,0,2.04,1.03,3.48,2.82,4.37,1.72,.86,3.55,.94,5.38,.59,1.18-.22,2.32-.68,3.48-1.04,.29-.09,.57-.22,.86-.33,.19,.71,.24,7.37,.07,8.49-2.78,1.15-5.68,1.74-8.72,1.63-2.53-.09-4.95-.6-7.17-1.81-4.28-2.35-6.53-6.02-6.83-10.86-.22-3.61,.67-6.92,2.92-9.8,2.18-2.8,5.12-4.3,8.58-4.82,3.67-.54,7.26-.08,10.78,1.03,.09,.03,.17,.08,.32,.14Z"/><path class="cls-2" d="M74.89,51.53h-9.83c-.21-.68-.27-33.03-.07-34.29h9.85c.19,.65,.24,33.01,.05,34.29Z"/><path class="cls-2" d="M88.3,45.88c-.01,3.44-2.63,6.12-5.96,6.13-3.36,0-6.03-2.74-6.02-6.19,0-3.44,2.72-6.17,6.08-6.13,3.35,.04,5.92,2.73,5.9,6.18Z"/><path class="cls-2" d="M187.38,15.53C187.4,6.91,194.32-.04,202.86,0c8.5,.04,15.34,7.06,15.32,15.71-.02,8.51-7.03,15.49-15.5,15.45-8.46-.04-15.32-7.04-15.3-15.63Zm29.84,.09c.05-8.01-6.43-14.64-14.36-14.69-7.92-.05-14.49,6.5-14.55,14.51-.06,8.08,6.36,14.68,14.37,14.78,7.93,.09,14.5-6.5,14.54-14.6Z"/><path class="cls-1" d="M10.14,42.81v-9.28c2.24-.59,4.47-.95,6.7-.11,2.04,.77,3.21,2.55,3.19,4.7-.02,2.11-1.21,3.79-3.28,4.52-.67,.24-1.38,.36-2.09,.45-.55,.07-1.12,.05-1.68,0-.93-.07-1.85-.19-2.84-.3Z"/><path class="cls-1" d="M47.21,43.42c-2.55-.01-4.53-1.36-5.12-3.55-1.04-3.83,1.54-7.15,5.79-6.74,3.96,.38,5.34,3.79,4.53,6.71-.62,2.24-2.61,3.6-5.19,3.58Z"/><path class="cls-1" d="M128.26,43.42c-3.77,0-6.19-3.05-5.22-6.63,.78-2.88,3.51-3.94,5.87-3.66,2.54,.3,4.3,1.91,4.63,4.16,.52,3.51-1.73,6.13-5.28,6.13Z"/><path class="cls-2" d="M199.65,5.51c-.28,.17-.56,.35-.85,.53-1.74,1.07-3.31,2.33-4.57,3.95-.7,.89-1.27,1.85-1.5,2.97-.06,.3-.11,.61-.12,.92-.02,1.17,.44,1.73,1.57,1.94,.78,.14,1.55,.09,2.31-.16,1.77-.6,3.35-1.51,4.67-2.83,.41-.41,.77-.91,1.02-1.43,.46-.99,.02-1.72-1.05-1.89-2.13-.33-4.33,.81-5.28,2.74-.14,.27-.25,.56-.37,.83-.66-.11-.7-.17-.61-.74,.34-2.01,2.26-3.86,4.29-4.17,1.16-.18,2.16,.15,3.02,.9,.97,.84,1.22,1.87,.79,3.13-.31,.9-.87,1.65-1.56,2.29-1.41,1.31-3.06,2.13-4.96,2.41-.46,.07-.94,.09-1.4,.02-2.07-.3-4.3-1.82-3.33-5.02,.28-.91,.75-1.79,1.28-2.57,1.3-1.91,3.05-3.35,5.02-4.54,.92-.56,1.18-.43,1.63,.72Z"/><path class="cls-2" d="M205.71,13.54c-.15,.19-.31,.37-.45,.56-.67,.9-.31,1.83,.8,1.98,.49,.07,1,.06,1.49-.03,2.25-.41,3.93-1.63,5.01-3.66,.32-.61,.5-1.27,.34-1.98-.16-.67-.55-1.09-1.2-1.29-.91-.28-1.79-.12-2.66,.14-1.56,.48-2.81,1.44-3.91,2.61-.21,.22-.41,.44-.6,.65-1.04-.65-1.12-.99-.38-1.75,1.38-1.42,2.91-2.63,4.94-2.99,3.14-.56,5.45,1.98,4.6,5.06-.83,3.02-4.62,5.04-7.6,4.05-.98-.33-1.68-.96-1.92-1.98-.09-.37-.06-.82,.07-1.17,.3-.81,.75-.86,1.5-.2Z"/><path class="cls-2" d="M202.52,17.11c-.41,.36-.81,.66-1.15,1.01-1.05,1.06-2.11,2.12-3.1,3.23-.62,.7-1.06,1.54-1.25,2.48-.25,1.2,.32,2.11,1.54,2.15,1.11,.04,2.24-.1,3.33-.3,.91-.17,1.79-.52,2.67-.82,.83-.28,.89-.26,1.29,.66-.04,.07-.07,.18-.14,.22-2.03,1.18-4.18,1.77-6.53,1.33-.48-.09-.97-.26-1.4-.48-1.44-.73-2.11-2.15-1.67-3.77,.23-.85,.64-1.69,1.12-2.44,.92-1.46,2.22-2.6,3.55-3.68,.8-.65,1.03-.6,1.75,.42Z"/></g></svg>