<?xml version="1.0" encoding="utf-8"?>
<!-- Generator: Adobe Illustrator 17.0.0, SVG Export Plug-In . SVG Version: 6.00 Build 0)  -->
<!DOCTYPE svg PUBLIC "-//W3C//DTD SVG 1.1//EN" "http://www.w3.org/Graphics/SVG/1.1/DTD/svg11.dtd">
<svg version="1.1" id="Layer_1" xmlns="http://www.w3.org/2000/svg" xmlns:xlink="http://www.w3.org/1999/xlink" x="0px" y="0px"
	 width="595px" height="440px" viewBox="0 0 595 440" enable-background="new 0 0 595 440" xml:space="preserve">
<g>
	<path fill="#1E1E1E" d="M119.24,280.947h9.521v7.701h6.861v7.841h-6.861v14.142c0,5.46,1.68,6.58,5.391,6.58
		c0.63,0,0.98,0,1.75-0.069v8.261c0,0-1.47,0.35-4.13,0.35c-8.751,0-12.601-4.9-12.601-14.842v-14.421h-3.851v-7.841h3.92V280.947z"
		/>
	<path fill="#1E1E1E" d="M174.682,304.12v21.142h-9.591V303c0-4.061-2.8-6.581-6.09-6.581c-4.061,0-6.651,2.94-6.651,6.86v21.982
		h-9.661v-50.615h9.661v18.272c1.54-2.521,4.9-5.181,9.661-5.181C172.512,287.738,174.682,296.348,174.682,304.12z"/>
	<path fill="#1E1E1E" d="M182.799,309.79v-21.142h9.661v22.262c0,4.061,2.801,6.581,6.091,6.581c3.99,0,6.511-2.94,6.511-6.86
		v-21.982h9.661v36.613h-9.451v-4.271c-1.54,2.521-5.041,5.181-9.801,5.181C185.039,326.172,182.799,317.561,182.799,309.79z"/>
	<path fill="#1E1E1E" d="M227.809,274.297c3.22,0,5.67,2.38,5.67,5.53s-2.45,5.53-5.67,5.53c-3.15,0-5.601-2.38-5.601-5.53
		S224.659,274.297,227.809,274.297z M223.049,288.648h9.661v36.613h-9.661V288.648z"/>
	<path fill="#1E1E1E" d="M238.938,319.382l5.671-5.041c1.82,2.101,4.27,3.99,8.4,3.99c2.73,0,4.48-1.189,4.48-3.29
		c0-5.601-17.292-3.431-17.292-16.452c0-6.79,5.811-10.851,13.301-10.851c6.931,0,10.781,3.641,12.531,6.511l-6.371,4.76
		c-1.12-1.399-3.15-3.5-6.581-3.5c-2.24,0-3.78,1.12-3.78,2.94c0,5.811,17.362,3.011,17.362,16.102
		c0,7.141-6.161,11.621-14.072,11.621C245.379,326.172,240.898,322.531,238.938,319.382z"/>
	<path fill="#1E1E1E" d="M298.091,301.809l-6.791,23.452h-10.781l-10.921-36.613h10.501l6.44,25.973l7.001-25.973h9.101
		l6.931,25.973l6.511-25.973h10.501l-10.991,36.613h-10.781L298.091,301.809z"/>
	<path fill="#1E1E1E" d="M336.658,274.297c3.22,0,5.67,2.38,5.67,5.53s-2.45,5.53-5.67,5.53c-3.15,0-5.601-2.38-5.601-5.53
		S333.508,274.297,336.658,274.297z M331.897,288.648h9.661v36.613h-9.661V288.648z"/>
	<path fill="#1E1E1E" d="M382.16,304.12v21.142h-9.661V303c0-4.061-2.801-6.581-6.091-6.581c-3.99,0-6.511,2.94-6.511,6.86v21.982
		h-9.661v-36.613h9.451v4.271c1.54-2.521,5.041-5.181,9.801-5.181C379.92,287.738,382.16,296.348,382.16,304.12z"/>
	<path fill="#1E1E1E" d="M390.486,274.646h9.661v29.403l11.762-15.401h10.851l-12.881,16.592l13.861,20.021h-11.341l-12.252-18.901
		v18.901h-9.661V274.646z"/>
	<path fill="#1E1E1E" d="M444.738,287.738c11.341,0,17.781,7.561,17.781,19.532c0,0.699,0,1.399-0.069,2.1h-25.763
		c0.21,4.9,4.13,8.401,9.521,8.401c4.971,0,7.841-2.94,8.892-4.48l6.37,4.83c-1.4,2.591-6.301,8.051-15.401,8.051
		c-11.762,0-19.252-8.121-19.252-19.111C426.816,295.999,434.306,287.738,444.738,287.738z M452.719,303.069
		c-0.21-4.48-3.43-7.421-7.841-7.421c-4.55,0-7.49,3.221-7.91,7.421H452.719z"/>
	<path fill="#1E1E1E" d="M468.955,274.646h9.661v50.615h-9.661V274.646z"/>
	<path fill="#1E1E1E" d="M181.672,363.417l-9.035,26.846h-5.655l-11.375-33.801h5.59l8.84,27.82c0,0,0.065-0.13,9.1-27.82h5.07
		c8.97,27.69,9.035,27.82,9.035,27.82l8.905-27.82h5.59l-11.44,33.801h-5.655L181.672,363.417z"/>
	<path fill="#1E1E1E" d="M224.376,368.747c4.291,0,7.541,1.625,8.905,3.055v-4.16c0-4.745-3.185-7.475-8.19-7.475
		c-4.16,0-7.541,1.494-9.945,2.925l-2.08-3.771c2.275-1.43,6.76-3.705,12.48-3.705c9.23,0,12.87,5.136,12.87,12.351v22.296h-4.42
		l-0.585-2.86c-1.755,2.016-4.615,3.705-9.166,3.705c-7.41,0-12.871-4.68-12.871-11.245
		C211.375,373.426,216.771,368.747,224.376,368.747z M225.091,386.817c4.94,0,8.385-2.925,8.385-7.021
		c0-4.225-3.38-6.955-8.451-6.955c-5.135,0-8.45,2.99-8.45,6.955C216.575,383.697,219.891,386.817,225.091,386.817z"/>
	<path fill="#1E1E1E" d="M258.5,368.747c4.29,0,7.541,1.625,8.905,3.055v-4.16c0-4.745-3.185-7.475-8.19-7.475
		c-4.16,0-7.541,1.494-9.946,2.925l-2.08-3.771c2.275-1.43,6.761-3.705,12.48-3.705c9.23,0,12.871,5.136,12.871,12.351v22.296h-4.42
		l-0.585-2.86c-1.755,2.016-4.615,3.705-9.166,3.705c-7.41,0-12.871-4.68-12.871-11.245
		C245.5,373.426,250.895,368.747,258.5,368.747z M259.216,386.817c4.94,0,8.385-2.925,8.385-7.021c0-4.225-3.38-6.955-8.45-6.955
		c-5.135,0-8.451,2.99-8.451,6.955C250.7,383.697,254.015,386.817,259.216,386.817z"/>
	<path fill="#1E1E1E" d="M296.98,360.752c-7.735,0-10.011,6.11-10.011,13.325v16.186h-5.135v-33.801h5.07v5.654
		c1.17-3.38,4.94-6.5,10.076-6.5V360.752z"/>
	<path fill="#1E1E1E" d="M303.675,343.265h5.135v18.656c1.04-1.755,4.876-6.306,11.961-6.306c9.556,0,16.12,7.41,16.12,17.811
		c0,10.336-6.89,17.681-16.51,17.681c-7.346,0-10.921-4.939-11.766-6.175v5.33h-4.94V343.265z M320.055,386.492
		c6.5,0,11.57-5.135,11.57-13c0-7.735-4.811-13.195-11.44-13.195c-6.37,0-11.57,4.81-11.57,13.195
		C308.615,380.577,313.035,386.492,320.055,386.492z"/>
	<path fill="#1E1E1E" d="M359.835,355.616c10.206,0,17.616,7.605,17.616,17.746s-7.541,17.745-17.681,17.745
		c-10.141,0-17.616-7.475-17.616-17.745C342.154,363.156,349.76,355.616,359.835,355.616z M359.77,386.427
		c7.28,0,12.48-5.525,12.48-13.065c0-7.476-5.2-13.065-12.48-13.065s-12.351,5.655-12.351,13.065
		C347.42,380.967,352.554,386.427,359.77,386.427z"/>
	<path fill="#1E1E1E" d="M400.135,360.752c-7.735,0-10.011,6.11-10.011,13.325v16.186h-5.135v-33.801h5.07v5.654
		c1.17-3.38,4.94-6.5,10.075-6.5V360.752z"/>
	<path fill="#1E1E1E" d="M410.469,395.333c1.301,0.78,5.33,2.795,10.206,2.795c6.435,0,11.896-2.665,11.896-10.205v-2.99
		c-0.78,1.235-4.291,6.175-11.701,6.175c-9.685,0-16.315-7.345-16.315-17.681c0-10.4,6.695-17.811,16.251-17.811
		c7.02,0,10.855,4.485,11.96,6.306v-5.46h4.94v29.121c0,12.805-7.215,17.16-16.966,17.16c-4.42,0-9.165-1.561-12.09-3.38
		L410.469,395.333z M421.194,360.297c-6.565,0-11.44,5.395-11.44,13.13c0,7.865,5.07,13.001,11.57,13.001
		c6.955,0,11.44-5.721,11.44-13.001C432.764,365.236,427.63,360.297,421.194,360.297z"/>
</g>
<g>
	<path fill="#1E1E1E" d="M296.968,50.011l-101.05,58.341v116.963h202.1V108.352L296.968,50.011z M387.227,214.524h-84.863v-44.716
		l84.863-48.996V214.524z M291.572,214.524h-84.863v-93.711l84.863,48.996V214.524z M296.968,160.464l-84.863-48.996l84.863-48.996
		l84.863,48.996L296.968,160.464z"/>
	<polygon fill="#BDEA18" points="387.227,120.813 302.363,169.809 302.363,214.524 387.227,214.524 	"/>
	<polygon fill="#FC3F4D" points="206.709,214.524 291.572,214.524 291.572,169.809 206.709,120.813 	"/>
	<polygon fill="#FFFFFF" points="212.104,111.467 296.968,160.464 381.831,111.467 296.968,62.471 	"/>
</g>
</svg>
